<svg width="23" height="23" viewBox="0 0 23 23" fill="none" xmlns="http://www.w3.org/2000/svg">
<g clip-path="url(#clip0_19_5)">
<path d="M11.5 0C8.63363 0 5.92921 1.06663 3.83333 2.94975V0.958333C3.83333 0.428375 3.404 0 2.875 0C2.346 0 1.91667 0.428375 1.91667 0.958333V4.79167C1.91667 5.84871 2.77629 6.70833 3.83333 6.70833H7.66667C8.19567 6.70833 8.625 6.27996 8.625 5.75C8.625 5.22004 8.19567 4.79167 7.66667 4.79167H4.66708C6.46492 2.95837 8.90483 1.91667 11.5 1.91667C16.7843 1.91667 21.0833 6.21575 21.0833 11.5C21.0833 16.7842 16.7843 21.0833 11.5 21.0833C6.50708 21.0833 2.4035 17.3382 1.95596 12.3721C1.909 11.846 1.45571 11.4588 0.915209 11.5038C0.388126 11.5517 5.71383e-07 12.0175 0.0469589 12.5446C0.584584 18.5054 5.5085 23 11.5 23C17.8413 23 23 17.8413 23 11.5C23 5.15871 17.8413 0 11.5 0Z" fill="white"/>
</g>
<defs>
<clipPath id="clip0_19_5">
<rect width="23" height="23" fill="white"/>
</clipPath>
</defs>
</svg>
